Coordinates
version=1
nRows=24
nColumns=24
inDegrees=yes

Units are S.I. units (second, meters, Newtons, ...)
Angles are in degrees.

endheader
time	pelvis_tilt	pelvis_list	pelvis_rotation	pelvis_tx	pelvis_ty	pelvis_tz	hip_flexion_r	hip_adduction_r	hip_rotation_r	knee_angle_r	ankle_angle_r	subtalar_angle_r	mtp_angle_r	hip_flexion_l	hip_adduction_l	hip_rotation_l	knee_angle_l	ankle_angle_l	subtalar_angle_l	mtp_angle_l	lumbar_extension	lumbar_bending	lumbar_rotation
      3.55000000	     -6.75334302	      0.52799816	      4.33873488	     -1.44782854	     -0.02235606	      0.44691993	     35.32168370	     -3.38235015	     -7.86197516	    -45.28109961	     -6.41859930	      8.54332641	     22.56188538	      0.33708092	      6.83114113	     15.20186376	    -13.88999199	      8.96888151	     12.37549464	      9.04528988	      4.76151232	     -1.11934937	     -6.97858376
      3.55500000	     -6.73558641	      0.42927189	      4.44818752	     -1.44081651	     -0.02273011	      0.44681364	     35.53963994	     -3.25065606	     -7.81357967	    -43.52121961	     -5.93456607	      9.05941893	     22.32367767	     -0.32414555	      6.61252690	     15.18162496	    -13.55198764	      9.08918680	     12.67362104	      9.16427061	      4.68302993	     -1.02606396	     -7.17831108
      3.56000000	     -6.58739056	      0.34692083	      4.56938835	     -1.43381241	     -0.02301446	      0.44684702	     35.56520069	     -3.08956236	     -7.67123405	    -41.70500568	     -5.32849844	      9.64391809	     21.85450353	     -1.10762198	      6.37822277	     15.07908871	    -13.23898005	      9.22578256	     13.14837927	      9.39091594	      4.43647253	     -0.96764673	     -7.46679765
      3.56500000	     -6.56422827	      0.21856481	      4.67545116	     -1.42659421	     -0.02347229	      0.44684100	     35.67480352	     -2.89953916	     -7.55188383	    -39.81719509	     -4.73029700	     10.30503347	     21.53948803	     -1.75982592	      6.11170741	     14.98188782	    -12.93863463	      9.35596202	     13.54777990	      9.59723460	      4.37492168	     -0.85389586	     -7.66572788
      3.57000000	     -6.51893425	      0.07074257	      4.78618863	     -1.41929049	     -0.02392605	      0.44690024	     35.71023653	     -2.66515468	     -7.34897240	    -37.87226653	     -4.14218982	     10.99833601	     21.11472595	     -2.43206749	      5.80846565	     14.84693646	    -12.64324829	      9.49424151	     14.04066588	      9.86350172	      4.29708850	     -0.72750065	     -7.90277878
      3.57500000	     -6.49933559	     -0.10813399	      4.88987633	     -1.41185978	     -0.02442274	      0.44700678	     35.72729664	     -2.38744305	     -7.09478446	    -35.88150120	     -3.58139092	     11.71509539	     20.58010952	     -3.07554962	      5.46573479	     14.68420963	    -12.35373043	      9.63825974	     14.59108874	     10.17169410	      4.26997500	     -0.57502582	     -8.13577421
      3.58000000	     -6.52085857	     -0.32767324	      5.00419906	     -1.40428286	     -0.02500631	      0.44712710	     35.73410305	     -2.07037494	     -6.81083150	    -33.83625512	     -3.00168438	     12.37889893	     20.03314947	     -3.66078001	      5.08280475	     14.50190719	    -12.09889655	      9.78505340	     15.13366172	     10.48442651	      4.31359558	     -0.38755616	     -8.34821398
      3.58500000	     -6.54350179	     -0.57063254	      5.12147327	     -1.39665803	     -0.02559665	      0.44728469	     35.70367879	     -1.71181697	     -6.40626557	    -31.76568649	     -2.50677268	     12.96296825	     19.30487748	     -4.23353567	      4.66589465	     14.29308815	    -11.85915193	      9.93853738	     15.76694381	     10.83862304	      4.36524456	     -0.17930097	     -8.58603315
      3.59000000	     -6.60902897	     -0.84664491	      5.25239388	     -1.38892560	     -0.02627717	      0.44742731	     35.67341046	     -1.32585125	     -5.93573294	    -29.66378269	     -2.03506244	     13.38208122	     18.52561091	     -4.74202597	      4.22103667	     14.07481149	    -11.65985401	     10.09455149	     16.37501426	     11.17634861	      4.48518929	      0.05852346	     -8.80886988
      3.59500000	     -6.68509894	     -1.12874751	      5.38887090	     -1.38119980	     -0.02698795	      0.44758671	     35.62607681	     -0.92705170	     -5.32397074	    -27.56007341	     -1.67283873	     13.62168357	     17.63247656	     -5.21691893	      3.76969680	     13.85329691	    -11.49745653	     10.24341764	     17.02015593	     11.50894024	      4.61566107	      0.29962124	     -9.05068999
      3.60000000	     -6.76411229	     -1.42408524	      5.53762404	     -1.37347334	     -0.02772868	      0.44769188	     35.55408414	     -0.52543564	     -4.59925235	    -25.46937449	     -1.39792108	     13.64787823	     16.60291332	     -5.66210961	      3.30856461	     13.60715552	    -11.37834876	     10.39878071	     17.70451412	     11.84260092	      4.75037511	      0.56247216	     -9.29686109
      3.60500000	     -6.92371061	     -1.76539067	      5.69515893	     -1.36569500	     -0.02857359	      0.44769424	     35.55448151	     -0.12779032	     -3.90793003	    -23.40289879	     -1.28480933	     13.50234143	     15.68842272	     -5.99974700	      2.82367927	     13.44096316	    -11.30190522	     10.51700453	     18.23767766	     12.09960537	      4.99626749	      0.87923482	     -9.52616450
      3.61000000	     -6.91708549	     -1.99620381	      5.79971494	     -1.35809350	     -0.02933672	      0.44788320	     35.38070094	      0.24489733	     -2.84520270	    -21.45663712	     -1.06243081	     13.07724737	     14.16929299	     -6.47666514	      2.42200677	     12.96737786	    -11.28556584	     10.69390471	     19.16134212	     12.45817034	      4.99954659	      1.08252393	     -9.73119018
      3.61500000	     -7.03066023	     -2.28407461	      5.96957807	     -1.35044383	     -0.03023130	      0.44786524	     35.33184359	      0.57465408	     -1.92586004	    -19.58048100	     -1.00231248	     12.41240444	     12.73412367	     -6.79187830	      1.99195270	     12.67042777	    -11.33086161	     10.83843541	     19.88198612	     12.70107082	      5.16567139	      1.34987663	     -9.99414236
      3.62000000	     -7.14648095	     -2.53772089	      6.18501045	     -1.34290461	     -0.03118448	      0.44778733	     35.30447638	      0.81908084	     -1.02268228	    -17.83160262	     -0.98979661	     11.56120594	     11.32442312	     -7.06221294	      1.60046516	     12.46207546	    -11.44760553	     10.98629058	     20.62843986	     12.96184789	      5.31540911	      1.57707476	    -10.24806434
      3.62500000	     -7.25356875	     -2.77889567	      6.34466485	     -1.33539096	     -0.03216927	      0.44771008	     35.30206434	      1.05466035	     -0.13785644	    -16.24801289	     -0.99713572	     10.64087630	      9.71591202	     -7.31447467	      1.23178760	     12.08964737	    -11.61282191	     11.11665230	     21.42222283	     13.20342750	      5.44929163	      1.81335588	    -10.48343203
      3.63000000	     -7.35796064	     -3.01147028	      6.41844517	     -1.32785339	     -0.03321909	      0.44770143	     35.35295280	      1.30436425	      0.66826859	    -14.89053987	     -0.90130772	      9.81329570	      7.77836826	     -7.56178441	      0.87976332	     11.58800395	    -11.81457465	     11.28044642	     22.27726353	     13.35585274	      5.58333133	      2.06580249	    -10.57009300
      3.63500000	     -7.48782306	     -3.17765343	      6.60527180	     -1.32049473	     -0.03432473	      0.44758296	     35.45972023	      1.40114083	      1.32676930	    -13.68842763	     -0.85061296	      8.91234693	      6.19923798	     -7.71802974	      0.60043146	     11.25955182	    -12.10953259	     11.38263220	     23.08844850	     13.55261199	      5.71043910	      2.22501650	    -10.80433011
      3.64000000	     -7.59183762	     -3.36179518	      6.72582335	     -1.31311025	     -0.03543951	      0.44752637	     35.58949089	      1.53915785	      1.83490192	    -12.70224041	     -0.73587053	      8.17100516	      4.44766483	     -7.88142375	      0.30328484	     10.78483859	    -12.44976460	     11.48527486	     23.94035230	     13.70231066	      5.81283368	      2.42637000	    -10.97326067
      3.64500000	     -7.68789045	     -3.50286918	      6.88554861	     -1.30572584	     -0.03660364	      0.44749111	     35.74169688	      1.60968436	      2.21551669	    -11.90653000	     -0.54909372	      7.49879197	      2.97633920	     -8.03519577	      0.03922464	     10.40656618	    -12.82497290	     11.56321207	     24.81986715	     13.88313341	      5.90518744	      2.56668535	    -11.15060317
      3.65000000	     -7.76322828	     -3.67392275	      6.98379384	     -1.29828146	     -0.03777655	      0.44752801	     35.90923978	      1.74230622	      2.46000515	    -11.30964105	     -0.31608157	      6.99672853	      1.41025682	     -8.19792903	     -0.25409761	      9.94398829	    -13.23879455	     11.62685612	     25.66877558	     13.98651197	      5.98276545	      2.76197399	    -11.25010914
      3.65500000	     -7.81316993	     -3.81589917	      7.13227480	     -1.29084996	     -0.03895471	      0.44756349	     36.07228444	      1.81885289	      2.52237147	    -10.87126984	     -0.13902955	      6.57789712	      0.38376519	     -8.35674820	     -0.53036857	      9.53836517	    -13.69175689	     11.61200165	     26.50409932	     14.19669100	      6.02687291	      2.91484281	    -11.40696565
      3.66000000	     -7.82643247	     -3.96128256	      7.26542034	     -1.28335607	     -0.04013900	      0.44765288	     36.20884349	      1.91883365	      2.54894573	    -10.60370129	      0.07519672	      6.26455490	     -0.58438285	     -8.53862873	     -0.82045117	      9.11238207	    -14.18397497	     11.58260580	     27.35386796	     14.38267057	      6.03654734	      3.08039722	    -11.54774629
      3.66500000	     -7.82774473	     -4.06797538	      7.48416625	     -1.27586660	     -0.04133124	      0.44766350	     36.33552499	      1.92827749	      2.43777343	    -10.47441667	      0.23938571	      6.06970157	     -1.00216567	     -8.71410751	     -1.07075772	      8.95244809	    -14.70405820	     11.45215951	     28.02459044	     14.56909099	      6.02943804	      3.19153169	    -11.77396828
